# xmcd CD database file
#
# Track frame offsets:
#	150
#	17307
#	38365
#	55015
#	79855
#	97880
#	127590
#	153675
#	179585
#
# Disc length: 2673 seconds
#
# Revision: 1
# Processed by: cddbd v1.5.2PL0 Copyright (c) Steve Scherf et al.
# Submitted via: CDex 1.81
#
DISCID=590a6f09
DTITLE=Great Jazz Trio - Hanky Panky
DYEAR=1975
DGENRE=Jazz
TTITLE0=Nothin' beats an evil woman
TTITLE1=Warm blue stream
TTITLE2=Confidence
TTITLE3=Wind flower
TTITLE4=Minor contention
TTITLE5=Favors
TTITLE6=As long as I live
TTITLE7=Oh, what a beautiful morning
TTITLE8=Hanky panky
EXTD=YEAR: 1975
EXTT0=
EXTT1=
EXTT2=
EXTT3=
EXTT4=
EXTT5=
EXTT6=
EXTT7=
EXTT8=
PLAYORDER=
